<svg xmlns="http://www.w3.org/2000/svg" width="210" height="210" viewBox="0 0 210 210">
  <g fill="none" fill-rule="evenodd">
    <rect width="210" height="210"/>
    <g transform="translate(17 18)">
      <path fill="#000" fill-opacity=".12" d="M164.125508,102.944492 L164.125508,6.88321088 L12.8905007,6.88321088 L12.8905007,102.944492 C12.8905007,102.944492 7.30800037,130.173665 23.4465012,156.188153 C23.4465012,156.188153 42.8330022,156.694271 60.1895031,154.366126 C60.1895031,154.366126 49.6335025,131.084678 49.9380026,103.146939 C49.9380026,105.373861 46.3855024,130.477336 63.9450033,152.948995 C63.9450033,152.948995 83.5345043,153.455113 96.7295049,152.645324 C86.9855044,134.323836 87.2900045,114.180322 87.2900045,114.180322 C87.3915045,127.643072 93.1770048,142.826626 101.601505,153.556337 C108.605006,153.455113 124.642006,153.252666 132.457507,152.341653 C132.457507,152.341653 122.104506,125.821046 123.322506,103.146939 C124.337506,133.918941 136.111507,153.961232 136.111507,153.961232 C155.498008,155.884482 174.478509,153.353889 174.478509,153.353889 C160.776008,123.492901 164.125508,102.944492 164.125508,102.944492 Z"/>
      <path fill="#FFF" fill-rule="nonzero" stroke="#424242" stroke-width=".5" d="M164.125508,96.5673997 L164.125508,0.506118447 L12.8905007,0.506118447 L12.8905007,96.5673997 C12.8905007,96.5673997 14.0070007,118.937835 0.20300001,148.798823 C0.20300001,148.798823 21.4165011,149.406166 40.8030021,147.482915 C40.8030021,147.482915 52.5770027,127.440625 53.5920027,96.6686234 C54.8100028,119.34273 44.4570023,145.863336 44.4570023,145.863336 C53.9980028,146.976797 82.4180042,147.179244 82.4180042,147.179244 C82.7225042,146.571902 82.9255042,146.065784 83.1285042,145.458442 C96.3235049,146.268231 109.011006,146.167007 109.011006,146.167007 C126.570506,123.695348 126.875006,98.9967682 126.875006,96.769847 C127.179506,124.707585 112.056006,147.179244 112.056006,147.179244 C128.600507,147.989034 149.306508,146.673126 149.306508,146.673126 C165.546508,120.658638 164.125508,96.5673997 164.125508,96.5673997 Z"/>
      <path fill="#FFF" fill-rule="nonzero" stroke="#424242" stroke-width=".5" d="M90.1320046,96.5673997 C89.9290046,122.986783 71.1515036,144.243757 71.1515036,144.243757 C87.3915045,146.268231 109.112506,146.065784 109.112506,146.065784"/>
      <path fill="#BDBDBD" d="M15.9355008 96.5673997L50.6485026 96.5673997M50.2425026 96.8589239L48.6185025 96.8589239C48.5170025 96.8589239 48.3140025 96.7597247 48.3140025 96.5613263 48.3140025 96.462127 48.4155025 96.2637286 48.6185025 96.2637286L50.2425026 96.2637286C50.3440026 96.2637286 50.5470026 96.3629278 50.5470026 96.5613263 50.5470026 96.7597247 50.4455026 96.8589239 50.2425026 96.8589239zM46.9945024 96.8589239L45.3705023 96.8589239C45.2690023 96.8589239 45.0660023 96.7597247 45.0660023 96.5613263 45.0660023 96.462127 45.1675023 96.2637286 45.3705023 96.2637286L46.9945024 96.2637286C47.0960024 96.2637286 47.2990024 96.3629278 47.2990024 96.5613263 47.2990024 96.7597247 47.1975024 96.8589239 46.9945024 96.8589239zM43.7465022 96.8589239L42.1225022 96.8589239C42.0210021 96.8589239 41.8180021 96.7597247 41.8180021 96.5613263 41.8180021 96.462127 41.9195021 96.2637286 42.1225022 96.2637286L43.7465022 96.2637286C43.8480022 96.2637286 44.0510023 96.3629278 44.0510023 96.5613263 44.0510023 96.7597247 43.9495022 96.8589239 43.7465022 96.8589239zM40.6000021 96.8589239L38.976002 96.8589239C38.874502 96.8589239 38.671502 96.7597247 38.671502 96.5613263 38.671502 96.462127 38.773002 96.2637286 38.976002 96.2637286L40.6000021 96.2637286C40.7015021 96.2637286 40.9045021 96.3629278 40.9045021 96.5613263 40.8030021 96.7597247 40.7015021 96.8589239 40.6000021 96.8589239zM37.3520019 96.8589239L35.7280018 96.8589239C35.6265018 96.8589239 35.4235018 96.7597247 35.4235018 96.5613263 35.4235018 96.462127 35.5250018 96.2637286 35.7280018 96.2637286L37.3520019 96.2637286C37.4535019 96.2637286 37.6565019 96.3629278 37.6565019 96.5613263 37.5550019 96.7597247 37.4535019 96.8589239 37.3520019 96.8589239zM34.1040017 96.8589239L32.4800017 96.8589239C32.3785017 96.8589239 32.1755016 96.7597247 32.1755016 96.5613263 32.1755016 96.462127 32.2770016 96.2637286 32.4800017 96.2637286L34.1040017 96.2637286C34.2055017 96.2637286 34.4085018 96.3629278 34.4085018 96.5613263 34.3070018 96.7597247 34.2055017 96.8589239 34.1040017 96.8589239zM30.8560016 96.8589239L29.2320015 96.8589239C29.1305015 96.8589239 28.9275015 96.7597247 28.9275015 96.5613263 28.9275015 96.462127 29.0290015 96.2637286 29.2320015 96.2637286L30.8560016 96.2637286C30.9575016 96.2637286 31.1605016 96.3629278 31.1605016 96.5613263 31.0590016 96.7597247 30.9575016 96.8589239 30.8560016 96.8589239zM27.6080014 96.8589239L25.9840013 96.8589239C25.8825013 96.8589239 25.6795013 96.7597247 25.6795013 96.5613263 25.6795013 96.462127 25.7810013 96.2637286 25.9840013 96.2637286L27.6080014 96.2637286C27.7095014 96.2637286 27.9125014 96.3629278 27.9125014 96.5613263 27.9125014 96.7597247 27.7095014 96.8589239 27.6080014 96.8589239zM24.3600012 96.8589239L22.7360012 96.8589239C22.6345012 96.8589239 22.4315011 96.7597247 22.4315011 96.5613263 22.4315011 96.462127 22.5330012 96.2637286 22.7360012 96.2637286L24.3600012 96.2637286C24.4615012 96.2637286 24.6645013 96.3629278 24.6645013 96.5613263 24.6645013 96.7597247 24.4615012 96.8589239 24.3600012 96.8589239zM21.1120011 96.8589239L19.488001 96.8589239C19.386501 96.8589239 19.183501 96.7597247 19.183501 96.5613263 19.183501 96.462127 19.285001 96.2637286 19.488001 96.2637286L21.1120011 96.2637286C21.2135011 96.2637286 21.4165011 96.3629278 21.4165011 96.5613263 21.4165011 96.7597247 21.3150011 96.8589239 21.1120011 96.8589239zM17.8640009 96.8589239L16.2400008 96.8589239C16.1385008 96.8589239 15.9355008 96.7597247 15.9355008 96.5613263 15.9355008 96.462127 16.0370008 96.2637286 16.2400008 96.2637286L17.8640009 96.2637286C17.9655009 96.2637286 18.1685009 96.3629278 18.1685009 96.5613263 18.1685009 96.7597247 18.0670009 96.8589239 17.8640009 96.8589239zM87.2900045 96.8589239L85.6660044 96.8589239C85.5645044 96.8589239 85.3615044 96.7597247 85.3615044 96.5613263 85.3615044 96.462127 85.4630044 96.2637286 85.6660044 96.2637286L87.2900045 96.2637286C87.3915045 96.2637286 87.5945045 96.3629278 87.5945045 96.5613263 87.5945045 96.7597247 87.3915045 96.8589239 87.2900045 96.8589239zM84.0420043 96.8589239L82.4180042 96.8589239C82.3165042 96.8589239 82.1135042 96.7597247 82.1135042 96.5613263 82.1135042 96.462127 82.2150042 96.2637286 82.4180042 96.2637286L84.0420043 96.2637286C84.1435043 96.2637286 84.3465043 96.3629278 84.3465043 96.5613263 84.3465043 96.7597247 84.1435043 96.8589239 84.0420043 96.8589239zM80.7940041 96.8589239L79.170004 96.8589239C79.068504 96.8589239 78.865504 96.7597247 78.865504 96.5613263 78.865504 96.462127 78.967004 96.2637286 79.170004 96.2637286L80.7940041 96.2637286C80.8955041 96.2637286 81.0985041 96.3629278 81.0985041 96.5613263 81.0985041 96.7597247 80.9970041 96.8589239 80.7940041 96.8589239zM77.546004 96.8589239L75.9220039 96.8589239C75.8205039 96.8589239 75.6175039 96.7597247 75.6175039 96.5613263 75.6175039 96.462127 75.7190039 96.2637286 75.9220039 96.2637286L77.546004 96.2637286C77.647504 96.2637286 77.850504 96.3629278 77.850504 96.5613263 77.850504 96.7597247 77.749004 96.8589239 77.546004 96.8589239zM74.2980038 96.8589239L72.6740037 96.8589239C72.5725037 96.8589239 72.3695037 96.7597247 72.3695037 96.5613263 72.3695037 96.462127 72.4710037 96.2637286 72.6740037 96.2637286L74.2980038 96.2637286C74.3995038 96.2637286 74.6025038 96.3629278 74.6025038 96.5613263 74.6025038 96.7597247 74.5010038 96.8589239 74.2980038 96.8589239zM71.0500036 96.8589239L69.4260035 96.8589239C69.3245035 96.8589239 69.1215035 96.7597247 69.1215035 96.5613263 69.1215035 96.462127 69.2230035 96.2637286 69.4260035 96.2637286L71.0500036 96.2637286C71.1515036 96.2637286 71.3545036 96.3629278 71.3545036 96.5613263 71.3545036 96.7597247 71.2530036 96.8589239 71.0500036 96.8589239zM67.9035035 96.8589239L66.2795034 96.8589239C66.1780034 96.8589239 65.9750034 96.7597247 65.9750034 96.5613263 65.9750034 96.462127 66.0765034 96.2637286 66.2795034 96.2637286L67.9035035 96.2637286C68.0050035 96.2637286 68.2080035 96.3629278 68.2080035 96.5613263 68.1065035 96.7597247 68.0050035 96.8589239 67.9035035 96.8589239zM64.6555033 96.8589239L63.0315032 96.8589239C62.9300032 96.8589239 62.7270032 96.7597247 62.7270032 96.5613263 62.7270032 96.462127 62.8285032 96.2637286 63.0315032 96.2637286L64.6555033 96.2637286C64.7570033 96.2637286 64.9600033 96.3629278 64.9600033 96.5613263 64.8585033 96.7597247 64.7570033 96.8589239 64.6555033 96.8589239zM61.4075031 96.8589239L59.7835031 96.8589239C59.682003 96.8589239 59.479003 96.7597247 59.479003 96.5613263 59.479003 96.462127 59.580503 96.2637286 59.7835031 96.2637286L61.4075031 96.2637286C61.5090031 96.2637286 61.7120032 96.3629278 61.7120032 96.5613263 61.6105031 96.7597247 61.5090031 96.8589239 61.4075031 96.8589239zM58.159503 96.8589239L56.5355029 96.8589239C56.4340029 96.8589239 56.2310029 96.7597247 56.2310029 96.5613263 56.2310029 96.462127 56.3325029 96.2637286 56.5355029 96.2637286L58.159503 96.2637286C58.261003 96.2637286 58.464003 96.3629278 58.464003 96.5613263 58.464003 96.7597247 58.261003 96.8589239 58.159503 96.8589239zM124.134506 96.8589239L122.510506 96.8589239C122.409006 96.8589239 122.206006 96.7597247 122.206006 96.5613263 122.206006 96.462127 122.307506 96.2637286 122.510506 96.2637286L124.134506 96.2637286C124.236006 96.2637286 124.439006 96.3629278 124.439006 96.5613263 124.337506 96.7597247 124.236006 96.8589239 124.134506 96.8589239zM120.886506 96.8589239L119.262506 96.8589239C119.161006 96.8589239 118.958006 96.7597247 118.958006 96.5613263 118.958006 96.462127 119.059506 96.2637286 119.262506 96.2637286L120.886506 96.2637286C120.988006 96.2637286 121.191006 96.3629278 121.191006 96.5613263 121.089506 96.7597247 120.988006 96.8589239 120.886506 96.8589239zM117.638506 96.8589239L116.014506 96.8589239C115.913006 96.8589239 115.710006 96.7597247 115.710006 96.5613263 115.710006 96.462127 115.811506 96.2637286 116.014506 96.2637286L117.638506 96.2637286C117.740006 96.2637286 117.943006 96.3629278 117.943006 96.5613263 117.841506 96.7597247 117.740006 96.8589239 117.638506 96.8589239zM114.390506 96.8589239L112.766506 96.8589239C112.665006 96.8589239 112.462006 96.7597247 112.462006 96.5613263 112.462006 96.462127 112.563506 96.2637286 112.766506 96.2637286L114.390506 96.2637286C114.492006 96.2637286 114.695006 96.3629278 114.695006 96.5613263 114.695006 96.7597247 114.492006 96.8589239 114.390506 96.8589239zM111.142506 96.8589239L109.518506 96.8589239C109.417006 96.8589239 109.214006 96.7597247 109.214006 96.5613263 109.214006 96.462127 109.315506 96.2637286 109.518506 96.2637286L111.142506 96.2637286C111.244006 96.2637286 111.447006 96.3629278 111.447006 96.5613263 111.447006 96.7597247 111.244006 96.8589239 111.142506 96.8589239zM107.894506 96.8589239L106.270505 96.8589239C106.169005 96.8589239 105.966005 96.7597247 105.966005 96.5613263 105.966005 96.462127 106.067505 96.2637286 106.270505 96.2637286L107.894506 96.2637286C107.996006 96.2637286 108.199006 96.3629278 108.199006 96.5613263 108.199006 96.7597247 108.097506 96.8589239 107.894506 96.8589239zM104.646505 96.8589239L103.022505 96.8589239C102.921005 96.8589239 102.718005 96.7597247 102.718005 96.5613263 102.718005 96.462127 102.819505 96.2637286 103.022505 96.2637286L104.646505 96.2637286C104.748005 96.2637286 104.951005 96.3629278 104.951005 96.5613263 104.951005 96.7597247 104.849505 96.8589239 104.646505 96.8589239zM101.398505 96.8589239L99.7745051 96.8589239C99.6730051 96.8589239 99.4700051 96.7597247 99.4700051 96.5613263 99.4700051 96.462127 99.5715051 96.2637286 99.7745051 96.2637286L101.398505 96.2637286C101.500005 96.2637286 101.703005 96.3629278 101.703005 96.5613263 101.703005 96.7597247 101.601505 96.8589239 101.398505 96.8589239zM98.150505 96.8589239L96.5265049 96.8589239C96.4250049 96.8589239 96.2220049 96.7597247 96.2220049 96.5613263 96.2220049 96.462127 96.3235049 96.2637286 96.5265049 96.2637286L98.150505 96.2637286C98.252005 96.2637286 98.455005 96.3629278 98.455005 96.5613263 98.455005 96.7597247 98.353505 96.8589239 98.150505 96.8589239zM95.0040049 96.8589239L93.3800048 96.8589239C93.2785048 96.8589239 93.0755048 96.7597247 93.0755048 96.5613263 93.0755048 96.462127 93.1770048 96.2637286 93.3800048 96.2637286L95.0040049 96.2637286C95.1055049 96.2637286 95.3085049 96.3629278 95.3085049 96.5613263 95.2070049 96.7597247 95.1055049 96.8589239 95.0040049 96.8589239zM161.080508 96.8589239L159.456508 96.8589239C159.355008 96.8589239 159.152008 96.7597247 159.152008 96.5613263 159.152008 96.462127 159.253508 96.2637286 159.456508 96.2637286L161.080508 96.2637286C161.182008 96.2637286 161.385008 96.3629278 161.385008 96.5613263 161.385008 96.7597247 161.283508 96.8589239 161.080508 96.8589239zM157.832508 96.8589239L156.208508 96.8589239C156.107008 96.8589239 155.904008 96.7597247 155.904008 96.5613263 155.904008 96.462127 156.005508 96.2637286 156.208508 96.2637286L157.832508 96.2637286C157.934008 96.2637286 158.137008 96.3629278 158.137008 96.5613263 158.137008 96.7597247 158.035508 96.8589239 157.832508 96.8589239zM154.584508 96.8589239L152.960508 96.8589239C152.859008 96.8589239 152.656008 96.7597247 152.656008 96.5613263 152.656008 96.462127 152.757508 96.2637286 152.960508 96.2637286L154.584508 96.2637286C154.686008 96.2637286 154.889008 96.3629278 154.889008 96.5613263 154.889008 96.7597247 154.787508 96.8589239 154.584508 96.8589239zM151.336508 96.8589239L149.712508 96.8589239C149.611008 96.8589239 149.408008 96.7597247 149.408008 96.5613263 149.408008 96.462127 149.509508 96.2637286 149.712508 96.2637286L151.336508 96.2637286C151.438008 96.2637286 151.641008 96.3629278 151.641008 96.5613263 151.641008 96.7597247 151.539508 96.8589239 151.336508 96.8589239zM148.190008 96.8589239L146.566007 96.8589239C146.464507 96.8589239 146.261507 96.7597247 146.261507 96.5613263 146.261507 96.462127 146.363007 96.2637286 146.566007 96.2637286L148.190008 96.2637286C148.291508 96.2637286 148.494508 96.3629278 148.494508 96.5613263 148.393008 96.7597247 148.291508 96.8589239 148.190008 96.8589239zM144.942007 96.8589239L143.318007 96.8589239C143.216507 96.8589239 143.013507 96.7597247 143.013507 96.5613263 143.013507 96.462127 143.115007 96.2637286 143.318007 96.2637286L144.942007 96.2637286C145.043507 96.2637286 145.246507 96.3629278 145.246507 96.5613263 145.145007 96.7597247 145.043507 96.8589239 144.942007 96.8589239zM141.694007 96.8589239L140.070007 96.8589239C139.968507 96.8589239 139.765507 96.7597247 139.765507 96.5613263 139.765507 96.462127 139.867007 96.2637286 140.070007 96.2637286L141.694007 96.2637286C141.795507 96.2637286 141.998507 96.3629278 141.998507 96.5613263 141.897007 96.7597247 141.795507 96.8589239 141.694007 96.8589239zM138.446007 96.8589239L136.822007 96.8589239C136.720507 96.8589239 136.517507 96.7597247 136.517507 96.5613263 136.517507 96.462127 136.619007 96.2637286 136.822007 96.2637286L138.446007 96.2637286C138.547507 96.2637286 138.750507 96.3629278 138.750507 96.5613263 138.649007 96.7597247 138.547507 96.8589239 138.446007 96.8589239zM135.198007 96.8589239L133.574007 96.8589239C133.472507 96.8589239 133.269507 96.7597247 133.269507 96.5613263 133.269507 96.462127 133.371007 96.2637286 133.574007 96.2637286L135.198007 96.2637286C135.299507 96.2637286 135.502507 96.3629278 135.502507 96.5613263 135.502507 96.7597247 135.299507 96.8589239 135.198007 96.8589239zM131.950007 96.8589239L130.326007 96.8589239C130.224507 96.8589239 130.021507 96.7597247 130.021507 96.5613263 130.021507 96.462127 130.123007 96.2637286 130.326007 96.2637286L131.950007 96.2637286C132.051507 96.2637286 132.254507 96.3629278 132.254507 96.5613263 132.254507 96.7597247 132.153007 96.8589239 131.950007 96.8589239z"/>
    </g>
    <g fill="#A62626" fill-rule="nonzero" transform="translate(41.803 26.806)">
      <path d="M4.02271757 77.4361224C2.80471751 77.4361224 1.48521744 76.8287802.774717403 75.8165433-.544782665 73.9945169-.138782644 71.4639247 1.68821745 70.1480167 24.1197186 53.8510028 25.1347186 33.1001464 25.1347186 32.2903569 25.2362187 30.0634357 27.0632187 28.2414093 29.2962189 28.342633 31.529219 28.4438567 33.2547191 30.2658831 33.2547191 32.4928043 33.2547191 33.5050412 32.239719 58.001174 6.45871769 76.7275566 5.74821766 77.1324513 4.83471761 77.4361224 4.02271757 77.4361224zM42.7957195 55.5718055C42.5927195 55.5718055 42.3897195 55.5718055 42.1867195 55.5718055 39.9537194 55.2681344 38.4312193 53.1424369 38.7357193 50.9155158 41.4762195 32.897699 42.3897195 4.15017126 42.3897195 3.94772389 42.4912195 1.72080272 44.2167196 0 46.5512197 0 48.7842199.101223689 50.5097199 1.9232501 50.5097199 4.15017126 50.5097199 5.36485554 49.4947199 33.6062649 46.7542198 52.1302 46.5512197 54.1546738 44.8257197 55.5718055 42.7957195 55.5718055zM72.9412211 68.9333325C70.809721 68.9333325 68.9827209 67.2125297 68.8812209 64.9856086 68.7797209 62.7586874 70.505221 60.8354373 72.7382211 60.7342136 72.8397211 60.7342136 79.2342214 60.4305426 88.2677219 58.5072925 90.500722 58.001174 92.6322221 59.4183057 93.1397221 61.6452268 93.6472221 63.872148 92.2262221 65.9978455 89.993222 66.5039639 80.1477215 68.6296614 73.3472211 68.9333325 73.0427211 68.9333325 73.0427211 68.9333325 73.0427211 68.9333325 72.9412211 68.9333325z"/>
      <path d="M45.8407197 77.4361224C44.6227196 77.4361224 43.4047196 76.9300039 42.6942195 75.917767 41.2732195 74.1969643 41.5777195 71.5651484 43.4047196 70.2492404 51.72772 63.6697006 57.3102203 57.7987266 60.9642205 52.6363185 58.9342204 51.6240816 56.8027203 50.1057262 55.6862202 47.575134 54.6712202 45.2469892 54.0622201 41.400489 57.6147203 36.2380808 62.6897206 28.7475278 67.7647208 27.0267251 69.6932209 26.6218303 72.3322211 26.1157119 74.8697212 27.6340672 75.5802212 30.1646594 76.0877213 31.9866858 77.3057213 37.7564361 73.6517211 46.5628971 78.5237214 46.4616734 82.3807216 45.1457655 85.3242217 42.7163969 90.906722 38.0601072 91.312722 30.3671068 91.312722 30.3671068 91.414222 28.1401856 93.2412221 26.4193829 95.4742222 26.4193829 97.7072224 26.5206066 99.4327224 28.342633 99.4327224 30.5695542 99.4327224 30.974449 99.0267224 41.8053837 90.602222 48.891042 85.3242217 53.3448843 78.1177214 55.2681344 69.3887209 54.5595686 65.2272207 60.936661 58.6297204 68.427214 48.3782198 76.5251092 47.6677198 77.1324513 46.7542198 77.4361224 45.8407197 77.4361224zM67.9677208 36.4405282C66.8512208 37.3515414 65.6332207 38.6674493 64.3137206 40.6919231 62.9942206 42.7163969 62.8927206 43.8298575 62.9942206 44.1335286 63.1972206 44.639647 64.2122206 45.1457655 65.2272207 45.5506602 67.0542208 41.8053837 67.7647208 38.6674493 67.9677208 36.4405282zM100.955223 63.0623585C99.2297224 63.0623585 97.6057223 61.9488979 97.0982223 60.2280952 96.3877223 58.1023977 97.6057223 55.7742528 99.7372225 55.1669107 118.920723 49.0934894 119.225223 44.4371996 119.326723 41.9066074 119.529723 37.9588835 116.484723 32.897699 115.266723 31.1768963 113.947223 29.3548699 114.353223 26.8242777 116.180223 25.5083697 118.007223 24.1924618 120.544724 24.5973565 121.864224 26.4193829 122.473224 27.2291724 127.954224 34.8209491 127.446724 42.4127259 126.939224 51.6240816 119.834223 57.2926082 102.173223 62.9611348 101.767223 63.0623585 101.361223 63.0623585 100.955223 63.0623585z"/>
    </g>
  </g>
</svg>
